<svg data-v-423bf9ae="" xmlns="http://www.w3.org/2000/svg" viewBox="0 0 209.82887167279182 60" class="font"><!----><!----><defs data-v-423bf9ae=""><linearGradient data-v-423bf9ae="" gradientTransform="rotate(25)" id="a82d6fd9-1843-4972-9863-5967c533ec6d" x1="0%" y1="0%" x2="100%" y2="0%"><stop data-v-423bf9ae="" offset="0%" style="stop-color: rgb(87, 93, 96); stop-opacity: 1;"></stop><stop data-v-423bf9ae="" offset="100%" style="stop-color: rgb(246, 225, 205); stop-opacity: 1;"></stop></linearGradient></defs><g data-v-423bf9ae="" id="c8bb3470-b87f-47af-bc43-d4a1638ee2ce" fill="url(#a82d6fd9-1843-4972-9863-5967c533ec6d)" transform="matrix(5.703421805055199,0,0,5.703421805055199,-1.3688243599478795,-12.8326990613742)"><path d="M0.24 7.60L1.26 7.60L1.26 11.59C1.26 11.93 1.18 11.97 0.67 11.97L0.38 11.97L0.39 12.42L3.30 12.42L3.32 11.97L3.12 11.97C2.27 11.97 2.24 11.93 2.24 11.55L2.24 7.60L3.65 7.60L3.81 6.93L2.24 6.93L2.24 5.08C2.24 4.69 2.30 2.86 3.29 2.86C3.81 2.86 3.91 3.70 4.14 3.70C4.42 3.70 4.87 3.01 4.87 2.79C4.87 2.46 4.38 2.28 3.79 2.28C3.40 2.28 2.97 2.37 2.63 2.58C1.30 3.40 1.26 4.65 1.26 5.42L1.26 6.93L0.41 6.93ZM4.37 11.51C4.37 12.26 5.07 12.57 5.66 12.57C6.27 12.57 6.93 12.17 7.29 11.68C7.59 12.04 7.74 12.31 8.23 12.66C8.27 12.64 8.75 12.36 9.07 12.15C9.17 12.10 9.20 12.04 9.20 12.00C9.20 11.96 9.17 11.91 9.07 11.89C8.26 11.66 8.16 11.21 8.16 10.61L8.16 7.99C8.16 6.97 7.25 6.87 6.93 6.87C4.91 6.87 4.48 8.13 4.48 8.44C4.48 8.61 4.52 8.95 4.80 8.95C4.91 8.95 5.25 8.81 5.25 8.58C5.25 8.43 5.17 8.22 5.11 7.97C5.11 7.97 5.26 7.53 6.24 7.53C7.10 7.53 7.18 7.98 7.18 8.53L7.18 9.37C5.60 9.37 4.37 10.36 4.37 11.51ZM5.35 11.10C5.35 10.49 6.02 9.74 7.18 9.74L7.18 11.05C7.18 11.35 7.01 11.82 6.19 11.82C5.57 11.82 5.35 11.48 5.35 11.10ZM9.62 10.44L9.87 12.77L10.28 12.74C10.28 12.68 10.26 12.64 10.26 12.60C10.26 12.50 10.29 12.42 10.39 12.42C10.49 12.42 11.12 12.60 11.76 12.60C12.98 12.60 13.58 11.84 13.58 11.02C13.58 10.28 13.01 9.86 12.35 9.41L11.72 8.99C11.30 8.69 10.95 8.48 10.95 8.05C10.95 7.67 11.35 7.38 11.75 7.38C12.61 7.38 13.06 7.84 13.06 7.84L13.08 8.83L13.52 8.83L13.52 6.72L13.08 6.71C13.08 7.00 13.06 7.13 12.95 7.13C12.81 7.13 12.43 6.87 11.73 6.87C10.77 6.87 10.02 7.52 10.02 8.27C10.02 8.99 10.50 9.45 11.07 9.83L11.58 10.16C12.10 10.50 12.54 10.81 12.54 11.33C12.54 11.69 12.29 12.12 11.73 12.12C10.93 12.12 10.19 11.58 10.19 11.58L10.05 10.42ZM14.42 11.97L14.43 12.42L17.15 12.42L17.16 11.97L16.91 11.97C16.34 11.97 16.20 11.94 16.20 11.65L16.20 8.34C16.20 8.34 16.95 7.67 17.67 7.67C18.09 7.67 18.62 7.91 18.62 8.74L18.62 11.58C18.62 11.94 18.48 11.97 17.95 11.97L17.72 11.97L17.74 12.42L20.43 12.42L20.43 11.97L20.20 11.97C19.63 11.97 19.60 11.94 19.60 11.56L19.60 9.14C19.60 8.04 19.57 6.89 18.26 6.89C17.36 6.89 16.56 7.63 16.20 7.92L16.20 2.25C15.39 2.38 14.85 2.46 14.42 2.51L14.42 3.00C14.59 2.97 14.91 2.91 14.99 2.91C15.15 2.91 15.22 3.00 15.22 3.33L15.22 11.65C15.22 11.96 15.05 11.97 14.57 11.97ZM22.09 4.10C22.09 4.27 22.43 4.73 22.68 4.73C22.83 4.73 23.28 4.31 23.28 4.12C23.28 3.89 22.83 3.51 22.68 3.51C22.50 3.51 22.09 3.88 22.09 4.10ZM21.04 7.15L21.06 7.57C21.49 7.49 21.76 7.46 21.83 7.46C21.98 7.46 22.04 7.55 22.04 7.91L22.04 11.65C22.04 11.94 21.92 11.97 21.22 11.97L21.10 11.97L21.10 12.42L24.14 12.42L24.14 11.97L23.88 11.97C23.06 11.97 23.02 11.93 23.02 11.59L23.02 6.73C22.25 6.94 21.66 7.06 21.04 7.15ZM24.72 9.69C24.72 11.10 25.63 12.63 27.52 12.63C29.32 12.63 30.44 11.41 30.44 9.84C30.44 8.61 29.85 6.80 27.50 6.80C25.58 6.80 24.72 8.23 24.72 9.69ZM25.84 9.35C25.84 7.98 26.56 7.28 27.37 7.28C28.38 7.28 29.26 8.11 29.26 9.80C29.26 10.96 28.85 12.08 27.71 12.08C26.56 12.08 25.84 10.64 25.84 9.35ZM31.02 11.97L31.04 12.42L33.77 12.42L33.80 11.97L33.61 11.97C32.77 11.97 32.77 11.93 32.77 11.49L32.77 8.12C32.77 8.12 33.61 7.67 34.29 7.67C34.92 7.67 35.20 7.94 35.20 8.74L35.20 11.55C35.20 11.94 35.11 11.97 34.72 11.97L34.40 11.97L34.41 12.42L37.02 12.42L37.03 11.97C36.37 11.97 36.18 11.97 36.18 11.55L36.18 9.14C36.18 8.04 36.16 6.89 34.85 6.89C33.73 6.89 32.96 7.69 32.73 7.78C32.73 7.27 32.75 7.13 32.77 6.79L31.05 7.14L31.05 7.57C31.43 7.49 31.47 7.46 31.58 7.46C31.78 7.46 31.79 7.59 31.79 8.16L31.79 11.49C31.79 11.94 31.79 11.97 31.16 11.97Z"></path></g><!----><!----></svg>